# xmcd CD database file
#
# Track frame offsets:
#	150
#	20184
#	33575
#	46289
#	61133
#	72609
#	98046
#	107886
#	132589
#	151548
#	173906
#
# Disc length: 2471 seconds
#
# Revision: 0
# Processed by: cddbd v1.5.2PL0 Copyright (c) Steve Scherf et al.
# Submitted via: CDex 1.51
#
DISCID=9709a50b
DTITLE=Leonhard Waltersdorfer - Vibraphone Solos
DYEAR=2011
DGENRE=Jazz
TTITLE0=Leonhard  Waltersdorfer - In Your Quiet Place (Gary Burton - transcr. Kurt Remling)
TTITLE1=Leonhard  Waltersdorfer - Slow Times (Leonhard Waltersdorfer)
TTITLE2=Leonhard  Waltersdorfer - Waltz King (Bill Molenhof)
TTITLE3=Leonhard  Waltersdorfer - O Grande Amor (Gary Burton - transcr. Leo Waltersdorfer)
TTITLE4=Leonhard  Waltersdorfer - Vienna (David Friedman)
TTITLE5=Leonhard  Waltersdorfer - In Your Quiet Place (Free Improvisation)
TTITLE6=Leonhard  Waltersdorfer - Why Not (Leonhard Waltersdorfer)
TTITLE7=Leonhard  Waltersdorfer - Looking Back (David Friedman)
TTITLE8=Leonhard  Waltersdorfer - Music of the Day (Bill Molenhof)
TTITLE9=Leonhard  Waltersdorfer - Blues for Gilbert (Mark Glentworth)
TTITLE10=Leonhard  Waltersdorfer - Pat Metheny Suite: II - Letter From Home (Pat Metheny - arr. Andrew Beall)
EXTD=YEAR: 2011
EXTT0=
EXTT1=
EXTT2=
EXTT3=
EXTT4=
EXTT5=
EXTT6=
EXTT7=
EXTT8=
EXTT9=
EXTT10=
PLAYORDER=
